<svg width="79" height="16" viewBox="0 0 79 16" fill="none" xmlns="http://www.w3.org/2000/svg">
<g clip-path="url(#clip0_4454_36232)">
<path d="M18.4066 7.97402C18.4066 3.04394 21.8668 0.59841 25.6131 0.59841C29.3595 0.59841 31.753 2.67971 31.9871 5.67158H29.2424C28.9952 4.04556 27.5773 2.95288 25.6001 2.95288C23.6229 2.95288 21.0213 4.78703 21.0213 7.98703C21.0213 11.187 22.9985 13.1122 25.5611 13.1122C28.1237 13.1122 29.3985 11.8114 29.3985 10.2635C29.3985 8.71548 29.1123 9.52199 28.657 9.52199H25.7302V7.44069H29.5676C30.8294 7.44069 31.9611 8.4293 31.9611 9.80817V15.1805H29.5286V12.8911C28.9952 14.348 27.4082 15.3496 25.47 15.3496C21.8278 15.3496 18.4196 12.8911 18.4196 7.97402H18.4066Z" fill="white"/>
<path d="M42.0685 8.50725V15.1804H39.5709V13.6325C39.1417 14.6601 37.9449 15.3365 36.462 15.3365C34.9791 15.3365 33.0018 14.0227 33.0018 12.2276C33.0018 10.4325 34.5628 8.94953 36.8913 8.94953H38.8035C39.3238 8.94953 39.5709 8.66335 39.5709 8.24709C39.5709 7.23245 38.7904 6.51701 37.4506 6.51701C36.1108 6.51701 35.3043 7.36253 35.2652 8.28611H33.0018C33.1319 6.23083 34.875 4.61782 37.5807 4.61782C40.2864 4.61782 42.0685 6.13977 42.0685 8.49424V8.50725ZM39.5709 10.7967V10.6276H37.2425C36.1758 10.6276 35.4474 11.2259 35.4474 12.1365C35.4474 13.0471 36.1108 13.4764 37.0604 13.4764C38.6474 13.4764 39.5709 12.3577 39.5709 10.7967Z" fill="white"/>
<path d="M43.6946 15.1934V0.351168H46.2052V15.1934H43.6946Z" fill="white"/>
<path d="M52.3318 15.1934V0.351168H54.8424V15.1934H52.3318Z" fill="white"/>
<path d="M66.1986 11.7204C65.8084 13.9317 63.8701 15.3496 61.3206 15.3496C58.771 15.3496 56.0262 12.67 56.0262 9.95125C56.0262 7.23255 57.7173 4.63093 61.1124 4.63093C64.5075 4.63093 66.1596 7.16751 66.1596 9.63906C66.1596 12.1106 66.1336 10.3025 66.1206 10.5106H58.4588C58.6409 12.1756 59.7206 13.2553 61.3206 13.2553C62.9206 13.2553 63.4669 12.722 63.7271 11.7334H66.1986V11.7204ZM58.5108 8.84556H63.623C63.5189 7.53174 62.6084 6.54312 61.1124 6.54312C59.6165 6.54312 58.784 7.28459 58.5108 8.84556Z" fill="white"/>
<path d="M67.187 9.99028C67.187 6.89434 69.4504 4.63093 72.6244 4.63093C75.7984 4.63093 78.0488 6.89434 78.0488 9.99028C78.0488 13.0862 75.7854 15.3496 72.6244 15.3496C69.4634 15.3496 67.187 13.0862 67.187 9.99028ZM75.4992 9.99028C75.4992 8.11711 74.3415 6.81629 72.6374 6.81629C70.9334 6.81629 69.7496 8.11711 69.7496 9.99028C69.7496 11.8634 70.9073 13.1643 72.6374 13.1643C74.3675 13.1643 75.4992 11.8634 75.4992 9.99028Z" fill="white"/>
<path d="M48 15.1935V4.80005H50.5366V15.1805H48V15.1935Z" fill="white"/>
<path d="M49.2752 3.48613C50.2379 3.48613 51.0183 2.70572 51.0183 1.74304C51.0183 0.780356 50.2379 -5.14984e-05 49.2752 -5.14984e-05C48.3125 -5.14984e-05 47.5321 0.780356 47.5321 1.74304C47.5321 2.70572 48.3125 3.48613 49.2752 3.48613Z" fill="white"/>
<path d="M8.41645 12.878L9.24897 15.9999C9.80832 15.9089 10.3677 15.7658 10.914 15.5577L9.66523 10.8877L13.0864 14.3089C13.3075 14.1268 13.5156 13.9446 13.7238 13.7365C13.9319 13.5284 14.127 13.3203 14.2961 13.0991L10.875 9.67798L15.5449 10.9268C15.753 10.3934 15.8961 9.83408 15.9872 9.26172L12.8652 8.4292C10.6669 8.96253 8.94978 10.6926 8.40344 12.891L8.41645 12.878Z" fill="white"/>
<path d="M12.8652 7.58382L15.9871 6.7513C15.8961 6.19195 15.753 5.6326 15.5448 5.08626L10.8749 6.33504L14.2961 2.9139C14.1139 2.69276 13.9318 2.48463 13.7237 2.2765C13.5156 2.06837 13.3074 1.87325 13.0863 1.70414L9.66516 5.12528L10.9139 0.455363C10.3676 0.247233 9.82126 0.104143 9.2489 0.0130863L8.41638 3.13504C8.94972 5.33341 10.6798 7.05048 12.8782 7.59683L12.8652 7.58382Z" fill="white"/>
<path d="M3.12183 8.41635L-0.00012207 9.24887C0.0909348 9.80822 0.234024 10.3676 0.442154 10.9139L5.11207 9.66513L1.69094 13.0863C1.87305 13.3074 2.05516 13.5155 2.26329 13.7237C2.47142 13.9318 2.67955 14.1269 2.90069 14.296L6.32183 10.8749L5.07305 15.5448C5.60638 15.7529 6.16573 15.896 6.73809 15.9871L7.57061 12.8651C7.03728 10.6668 5.3072 8.94969 3.10882 8.40335L3.12183 8.41635Z" fill="white"/>
<path d="M7.58374 3.12195L6.73821 0C6.17886 0.0910569 5.61951 0.234146 5.07317 0.442276L6.32195 5.1122L2.91382 1.70407C2.69268 1.88618 2.48455 2.06829 2.27642 2.27642C2.06829 2.48455 1.87317 2.69268 1.70407 2.91382L5.1252 6.33496L0.442276 5.08618C0.234146 5.63252 0.0910569 6.17886 0 6.75122L3.12195 7.58374C5.32032 7.05041 7.0374 5.32032 7.58374 3.12195Z" fill="white"/>
</g>
<defs>
<clipPath id="clip0_4454_36232">
<rect width="78.0488" height="16" fill="white"/>
</clipPath>
</defs>
</svg>
