<svg width="261" height="61" viewBox="0 0 261 61" fill="none" xmlns="http://www.w3.org/2000/svg">
<path d="M109.55 35.3962H93.8771V29.7439H115.782V53.7049H109.675V46.4451C105.364 55.2967 92.0661 55.9334 84.2113 51.5181C69.1541 43.9034 69.2272 17.4006 84.2426 9.67108C95.7508 3.12107 113.689 8.20972 115.651 22.5467H108.459C104.649 6.98323 79.1749 10.193 79.8742 30.5111C79.1174 52.5045 108.496 54.1798 109.55 35.391V35.3962Z" fill="white"/>
<path fill-rule="evenodd" clip-rule="evenodd" d="M121.424 31.0904C121.946 20.9496 134.628 17.505 142.587 21.3254C146.758 23.2878 149.132 27.1029 149.106 31.7323V53.6996H143.454V48.5588C140.698 54.232 131.92 55.4793 126.528 53.0211C120.448 50.6673 119.174 41.8313 123.992 37.7656C126.559 35.036 132.729 34.3106 137.368 33.7625C138.24 33.6582 139.065 33.5642 139.795 33.4598C143.824 33.1832 143.574 28.439 140.823 26.5549C136.69 23.4652 127.812 24.7961 127.588 31.0851H121.424V31.0904ZM128.877 40.8553C122.828 48.9241 135.985 51.7581 140.406 46.3772C142.426 44.3469 143.12 40.824 142.942 37.5151C142.034 37.7447 140.599 37.9326 138.976 38.1518C135.181 38.6581 130.364 39.3053 128.877 40.8553Z" fill="white"/>
<path d="M161.486 6.87366H155.192V53.6997H161.486V6.87366Z" fill="white"/>
<path d="M167.968 6.87366H175.097V14.3892H167.968V6.87366Z" fill="white"/>
<path d="M174.586 20.3651H168.292V53.7049H174.586V20.3651Z" fill="white"/>
<path d="M181.397 6.87366H187.696V53.6997H181.397V6.87366Z" fill="white"/>
<path fill-rule="evenodd" clip-rule="evenodd" d="M192.42 36.9984C192.07 57.567 220.373 60.0774 223.703 42.9743H217.534C216.715 46.9721 212.868 48.8354 208.865 48.8197C202.686 48.8667 199.043 44.3521 198.698 38.2875H223.76C223.849 37.3011 223.891 36.4451 223.891 35.7197C223.76 13.554 191.804 15.1824 192.414 37.0036H192.42V36.9984ZM198.985 33.2719C200.295 22.4526 216.569 21.8524 217.153 33.2719H198.985Z" fill="white"/>
<path fill-rule="evenodd" clip-rule="evenodd" d="M235.785 22.0612C247.069 15.579 261.406 23.7 260.968 36.9983C261.427 50.3384 247.106 58.4907 235.785 51.9929C225.102 46.0535 225.065 27.9797 235.785 22.0612ZM249.663 47.2122C236.224 54.5033 228.567 34.394 239.063 26.8471C252.429 19.5716 260.31 39.6705 249.663 47.2122Z" fill="white"/>
<path d="M19.0296 1.8006L25.7622 0C25.7622 0 29.233 10.4487 29.5357 14.0812C30.2611 22.698 22.1871 30.4849 14.3741 29.5872C10.6894 29.1593 0.0214844 25.7407 0.0214844 25.7407L1.82208 19.0081L18.5911 23.5017L6.31575 11.2263L11.2478 6.29427L23.5232 18.5697L19.0296 1.8006Z" fill="#E35454"/>
<path d="M60.4957 25.7407C60.4957 25.7407 49.833 29.1645 46.1378 29.5872C38.33 30.4849 30.256 22.6928 30.9763 14.0812C31.2842 10.4487 34.7497 0 34.7497 0L41.4824 1.8006L36.9939 18.5697L49.2693 6.29427L54.1962 11.2263L41.9208 23.5017L58.6899 19.0081L60.4957 25.7407Z" fill="#E35454"/>
<path d="M14.3741 30.8869C10.6842 31.3096 0.0214844 34.7334 0.0214844 34.7334L1.82208 41.4661L18.5911 36.9724L6.31575 49.2478L11.2478 54.1799L23.5232 41.9045L19.0296 58.6735L25.7622 60.4741C25.7622 60.4741 29.233 50.0254 29.5357 46.3929C30.2611 37.7761 22.1871 29.9892 14.3741 30.8869Z" fill="#E35454"/>
<path d="M34.7497 60.4741C34.7497 60.4741 31.2842 50.0254 30.9763 46.3929C30.256 37.7761 38.33 29.9892 46.1378 30.8869C49.8278 31.3148 60.4957 34.7334 60.4957 34.7334L58.6899 41.4661L41.9208 36.9724L54.1962 49.2478L49.2693 54.1799L36.9939 41.9045L41.4824 58.6735L34.7497 60.4741Z" fill="#E35454"/>
</svg>
