<svg width="261" height="61" viewBox="0 0 261 61" fill="none" xmlns="http://www.w3.org/2000/svg">
<path d="M109.55 35.3961H93.8769V29.7437H115.782V53.7048H109.675V46.445C105.364 55.2966 92.0659 55.9333 84.2111 51.5179C69.1539 43.9032 69.227 17.4005 84.2424 9.67096C95.7506 3.12095 113.689 8.2096 115.651 22.5466H108.459C104.649 6.98311 79.1746 10.1929 79.874 30.5109C79.1172 52.5044 108.496 54.1797 109.55 35.3908V35.3961Z" fill="#01091A"/>
<path fill-rule="evenodd" clip-rule="evenodd" d="M121.423 31.0902C121.945 20.9495 134.628 17.5048 142.587 21.3252C146.757 23.2876 149.131 27.1028 149.105 31.7322V53.6995H143.453V48.5587C140.697 54.2318 131.919 55.4792 126.527 53.021C120.447 50.6672 119.174 41.8312 123.991 37.7655C126.559 35.0359 132.728 34.3104 137.368 33.7624C138.239 33.658 139.064 33.5641 139.794 33.4597C143.824 33.1831 143.573 28.4389 140.823 26.5548C136.689 23.4651 127.811 24.796 127.587 31.085H121.423V31.0902ZM128.876 40.8552C122.827 48.924 135.985 51.758 140.405 46.3771C142.425 44.3468 143.119 40.8239 142.942 37.515C142.033 37.7446 140.598 37.9325 138.975 38.1517C135.181 38.658 130.364 39.3051 128.876 40.8552Z" fill="#01091A"/>
<path d="M161.485 6.87354H155.191V53.6996H161.485V6.87354Z" fill="#01091A"/>
<path d="M167.967 6.87354H175.097V14.3891H167.967V6.87354Z" fill="#01091A"/>
<path d="M174.585 20.365H168.291V53.7048H174.585V20.365Z" fill="#01091A"/>
<path d="M181.396 6.87354H187.695V53.6996H181.396V6.87354Z" fill="#01091A"/>
<path fill-rule="evenodd" clip-rule="evenodd" d="M192.419 36.9982C192.069 57.5668 220.373 60.0772 223.702 42.9741H217.533C216.714 46.972 212.867 48.8352 208.864 48.8196C202.685 48.8665 199.042 44.352 198.698 38.2874H223.76C223.848 37.301 223.89 36.445 223.89 35.7196C223.76 13.5539 191.803 15.1823 192.414 37.0035H192.419V36.9982ZM198.985 33.2718C200.295 22.4525 216.568 21.8523 217.152 33.2718H198.985Z" fill="#01091A"/>
<path fill-rule="evenodd" clip-rule="evenodd" d="M235.785 22.0612C247.068 15.579 261.405 23.7 260.967 36.9983C261.426 50.3384 247.105 58.4907 235.785 51.9929C225.101 46.0535 225.065 27.9797 235.785 22.0612ZM249.662 47.2121C236.223 54.5033 228.567 34.394 239.062 26.8471C252.428 19.5716 260.309 39.6705 249.662 47.2121Z" fill="#01091A"/>
<path d="M19.0296 1.8006L25.7622 0C25.7622 0 29.233 10.4487 29.5357 14.0812C30.2611 22.698 22.1871 30.4849 14.3741 29.5872C10.6894 29.1593 0.0214844 25.7407 0.0214844 25.7407L1.82208 19.0081L18.5911 23.5017L6.31575 11.2263L11.2478 6.29427L23.5232 18.5697L19.0296 1.8006Z" fill="#E35454"/>
<path d="M60.4954 25.7407C60.4954 25.7407 49.8327 29.1645 46.1376 29.5872C38.3298 30.4849 30.2558 22.6928 30.976 14.0812C31.284 10.4487 34.7495 0 34.7495 0L41.4821 1.8006L36.9937 18.5697L49.2691 6.29427L54.1959 11.2263L41.9205 23.5017L58.6896 19.0081L60.4954 25.7407Z" fill="#E35454"/>
<path d="M14.3741 30.8868C10.6842 31.3095 0.0214844 34.7333 0.0214844 34.7333L1.82208 41.4659L18.5911 36.9723L6.31575 49.2477L11.2478 54.1797L23.5232 41.9043L19.0296 58.6734L25.7622 60.474C25.7622 60.474 29.233 50.0253 29.5357 46.3928C30.2611 37.776 22.1871 29.9891 14.3741 30.8868Z" fill="#E35454"/>
<path d="M34.7495 60.474C34.7495 60.474 31.284 50.0253 30.976 46.3928C30.2558 37.776 38.3298 29.9891 46.1376 30.8868C49.8275 31.3147 60.4954 34.7333 60.4954 34.7333L58.6896 41.4659L41.9205 36.9723L54.1959 49.2477L49.2691 54.1797L36.9937 41.9043L41.4821 58.6734L34.7495 60.474Z" fill="#E35454"/>
</svg>
