<svg xmlns="http://www.w3.org/2000/svg" fill="none" viewBox="0 0 122 40" height="40" width="122">
<path fill="url(#paint0_radial_735_597)" d="M31.2577 30.1233L33.6089 29.9887C38.0424 29.7195 39.0165 28.3062 38.076 24.0326C38.076 24.0326 35.1203 26.4217 33.9783 27.263C31.6272 29.0465 30.0822 28.71 28.1005 26.0516L24.5738 21.1049L25.9173 27.0275C26.7906 30.3589 27.6303 30.1233 31.2577 30.1233Z"></path>
<path fill="url(#paint1_radial_735_597)" d="M26.1861 33.9258L28.4029 34.7671C32.5677 36.3487 34.012 35.4401 34.9188 31.1328C34.9188 31.1328 31.2578 32.1087 29.8807 32.4116C26.9922 33.0846 25.7159 32.1424 25.0105 28.9119L23.8014 22.9557L22.6258 28.8783C21.9876 32.3443 22.8273 32.4452 26.1861 33.9258Z"></path>
<path fill="url(#paint2_radial_735_597)" d="M19.9724 35.3392L21.6517 37.0217C24.809 40.1512 26.4883 39.9157 29.0746 36.3487C29.0746 36.3487 25.3464 35.743 23.9357 35.4738C21.0472 34.9354 20.2411 33.522 20.9128 30.2916L22.2227 24.3691L18.7296 29.3157C16.7816 32.176 17.4869 32.6471 19.9724 35.3392Z"></path>
<path fill="url(#paint3_radial_735_597)" d="M13.7252 34.0941L14.5649 36.2814C16.1771 40.454 17.8228 40.8915 21.6182 38.7042C21.6182 38.7042 18.461 36.6179 17.2855 35.8103C14.8672 34.1277 14.6992 32.5461 16.6137 29.8204L20.2076 24.9411L15.0015 28.037C12.0794 29.9214 12.5496 30.628 13.7252 34.0941Z"></path>
<path fill="url(#paint4_radial_735_597)" d="M8.51892 30.4262L8.38458 32.7817C8.18305 37.2573 9.49296 38.3341 13.8593 37.863C13.8593 37.863 11.8105 34.6662 11.0716 33.4547C9.52656 30.9309 10.0639 29.4167 12.8853 27.7341L18.1585 24.7392L12.1464 25.4459C8.72044 25.9506 8.85479 26.7919 8.51892 30.4262Z"></path>
<path fill="url(#paint5_radial_735_597)" d="M5.22736 24.9411L4.15255 27.0611C2.1373 31.0655 2.90982 32.5798 7.07467 33.9258C7.07467 33.9258 6.50369 30.1906 6.30217 28.7773C5.9327 25.8497 7.00749 24.6719 10.2991 24.2681L16.3448 23.696L10.5678 21.9126C7.27621 20.9367 7.04109 21.7779 5.22736 24.9411Z"></path>
<path fill="url(#paint6_radial_735_597)" d="M4.48857 18.6148L2.67486 20.0954C-0.784655 22.9221 -0.717488 24.6383 2.5405 27.5659C2.5405 27.5659 3.54813 23.8979 3.95118 22.5519C4.79087 19.7253 6.26872 19.0859 9.42594 20.0618L15.1694 21.9799L10.6351 17.9754C7.94809 15.7545 7.44428 16.4275 4.48857 18.6148Z"></path>
<path fill="url(#paint7_radial_735_597)" d="M6.36943 12.4903L4.08547 13.0961C-0.213738 14.2738 -0.851889 15.8554 0.92825 19.8598C0.92825 19.8598 3.31295 16.9322 4.2534 15.8554C6.16789 13.6008 7.7801 13.6345 10.2656 15.8218L14.7327 19.9271L12.2137 14.4421C10.7022 11.3126 9.92971 11.7164 6.36943 12.4903Z"></path>
<path fill="url(#paint8_radial_735_597)" d="M10.5679 7.71196L8.25037 7.3418C3.8504 6.66879 2.64125 7.84657 2.64125 12.2548C2.64125 12.2548 6.0336 10.5386 7.30992 9.9329C9.96334 8.65417 11.4412 9.32719 12.8183 12.3558L15.2366 17.9081L15.1694 11.851C15.0015 8.38497 14.1282 8.45228 10.5679 7.71196Z"></path>
<path fill="url(#paint9_radial_735_597)" d="M16.3448 5.01989L14.3632 3.74116C10.6014 1.31831 9.02277 1.92402 7.24263 5.92845C7.24263 5.92845 11.038 5.7602 12.4487 5.72655C15.4044 5.65925 16.4456 6.87067 16.5128 10.1684L16.4456 16.2256L18.8303 10.6732C20.1067 7.44274 19.3005 7.17353 16.3448 5.01989Z"></path>
<path fill="url(#paint10_radial_735_597)" d="M22.7266 4.95261L21.4503 2.96722C18.9984 -0.768003 17.319 -0.868959 14.061 2.05865C14.061 2.05865 17.5877 3.43833 18.8976 3.97674C21.6182 5.12086 22.0885 6.63514 20.7785 9.69736L18.2595 15.2161L22.693 11.1107C25.1785 8.68783 24.5739 8.08212 22.7266 4.95261Z"></path>
<path fill="url(#paint11_radial_735_597)" d="M28.5707 7.44276L28.2013 5.12087C27.4623 0.71263 25.9845 -0.0613339 21.8196 1.28469C21.8196 1.28469 24.473 3.97675 25.4471 5.01992C27.4623 7.17356 27.2944 8.75514 24.8761 11.0097L20.3418 15.0142L26.0516 13.0624C29.3096 11.8847 28.9738 11.077 28.5707 7.44276Z"></path>
<path fill="url(#paint12_radial_735_597)" d="M32.9036 12.1538L33.5082 9.8656C34.6502 5.55831 33.5754 4.21228 29.209 3.74117C29.209 3.74117 30.5525 7.27449 31.0227 8.62052C31.9967 11.4135 31.1907 12.7932 28.067 13.87L22.29 15.6872L28.3021 16.2592C31.7616 16.4948 31.7952 15.6199 32.9036 12.1538Z"></path>
<path fill="url(#paint13_radial_735_597)" d="M34.9524 18.1773L36.4303 16.3265C39.218 12.8269 38.7814 11.178 34.986 8.9907C34.986 8.9907 34.7845 12.7932 34.6501 14.2066C34.415 17.1678 33.1051 18.0764 29.8135 17.7735L23.8013 17.0669L29.0746 20.0281C32.1646 21.677 32.5341 20.903 34.9524 18.1773Z"></path>
<path fill="url(#paint14_radial_735_597)" d="M34.3814 24.5373L36.4638 23.4604C40.4272 21.4078 40.6959 19.7252 38.1432 16.1919C38.1432 16.1919 36.3967 19.557 35.7249 20.8021C34.3142 23.3932 32.7356 23.696 29.8471 22.0808L24.641 18.9849L28.2685 23.8306C30.3845 26.59 31.0562 26.0516 34.3814 24.5373Z"></path>
<path fill="url(#paint15_radial_735_597)" d="M31.2577 30.1233L33.6089 29.9887C38.0424 29.7195 39.0165 28.3062 38.076 24.0326C38.076 24.0326 35.1203 26.4217 33.9783 27.263C31.6272 29.0465 30.0822 28.71 28.1005 26.0516L24.5738 21.1049L25.9173 27.0275C26.7906 30.3589 27.6303 30.1233 31.2577 30.1233Z"></path>
<path fill="url(#paint16_radial_735_597)" d="M26.1861 33.9258L28.4029 34.7671C32.5677 36.3487 34.012 35.4401 34.9188 31.1328C34.9188 31.1328 31.2578 32.1087 29.8807 32.4116C26.9922 33.0846 25.7159 32.1424 25.0105 28.9119L23.8014 22.9557L22.6258 28.8783C21.9876 32.3443 22.8273 32.4452 26.1861 33.9258Z"></path>
<path fill="url(#paint17_radial_735_597)" d="M19.9724 35.3392L21.6517 37.0217C24.809 40.1512 26.4883 39.9157 29.0746 36.3487C29.0746 36.3487 25.3464 35.743 23.9357 35.4738C21.0472 34.9354 20.2411 33.522 20.9128 30.2916L22.2227 24.3691L18.7296 29.3157C16.7816 32.176 17.4869 32.6471 19.9724 35.3392Z"></path>
<path fill="url(#paint18_radial_735_597)" d="M13.7252 34.0941L14.5649 36.2814C16.1771 40.454 17.8228 40.8915 21.6182 38.7042C21.6182 38.7042 18.461 36.6179 17.2855 35.8103C14.8672 34.1277 14.6992 32.5461 16.6137 29.8204L20.2076 24.9411L15.0015 28.037C12.0794 29.9214 12.5496 30.628 13.7252 34.0941Z"></path>
<path fill="url(#paint19_radial_735_597)" d="M8.51892 30.4262L8.38458 32.7817C8.18305 37.2573 9.49296 38.3341 13.8593 37.863C13.8593 37.863 11.8105 34.6662 11.0716 33.4547C9.52656 30.9309 10.0639 29.4167 12.8853 27.7341L18.1585 24.7392L12.1464 25.4459C8.72044 25.9506 8.85479 26.7919 8.51892 30.4262Z"></path>
<path fill="url(#paint20_radial_735_597)" d="M5.22736 24.9411L4.15255 27.0611C2.1373 31.0655 2.90982 32.5798 7.07467 33.9258C7.07467 33.9258 6.50369 30.1906 6.30217 28.7773C5.9327 25.8497 7.00749 24.6719 10.2991 24.2681L16.3448 23.696L10.5678 21.9126C7.27621 20.9367 7.04109 21.7779 5.22736 24.9411Z"></path>
<path fill="url(#paint21_radial_735_597)" d="M4.48857 18.6148L2.67486 20.0954C-0.784655 22.9221 -0.717488 24.6383 2.5405 27.5659C2.5405 27.5659 3.54813 23.8979 3.95118 22.5519C4.79087 19.7253 6.26872 19.0859 9.42594 20.0618L15.1694 21.9799L10.6351 17.9754C7.94809 15.7545 7.44428 16.4275 4.48857 18.6148Z"></path>
<path fill="url(#paint22_radial_735_597)" d="M6.36943 12.4903L4.08547 13.0961C-0.213738 14.2738 -0.851889 15.8554 0.92825 19.8598C0.92825 19.8598 3.31295 16.9322 4.2534 15.8554C6.16789 13.6008 7.7801 13.6345 10.2656 15.8218L14.7327 19.9271L12.2137 14.4421C10.7022 11.3126 9.92971 11.7164 6.36943 12.4903Z"></path>
<path fill="url(#paint23_radial_735_597)" d="M10.5679 7.71196L8.25037 7.3418C3.8504 6.66879 2.64125 7.84657 2.64125 12.2548C2.64125 12.2548 6.0336 10.5386 7.30992 9.9329C9.96334 8.65417 11.4412 9.32719 12.8183 12.3558L15.2366 17.9081L15.1694 11.851C15.0015 8.38497 14.1282 8.45228 10.5679 7.71196Z"></path>
<path fill="url(#paint24_radial_735_597)" d="M16.3448 5.01989L14.3632 3.74116C10.6014 1.31831 9.02277 1.92402 7.24263 5.92845C7.24263 5.92845 11.038 5.7602 12.4487 5.72655C15.4044 5.65925 16.4456 6.87067 16.5128 10.1684L16.4456 16.2256L18.8303 10.6732C20.1067 7.44274 19.3005 7.17353 16.3448 5.01989Z"></path>
<path fill="url(#paint25_radial_735_597)" d="M22.7266 4.95261L21.4503 2.96722C18.9984 -0.768003 17.319 -0.868959 14.061 2.05865C14.061 2.05865 17.5877 3.43833 18.8976 3.97674C21.6182 5.12086 22.0885 6.63514 20.7785 9.69736L18.2595 15.2161L22.693 11.1107C25.1785 8.68783 24.5739 8.08212 22.7266 4.95261Z"></path>
<path fill="url(#paint26_radial_735_597)" d="M28.5707 7.44276L28.2013 5.12087C27.4623 0.71263 25.9845 -0.0613339 21.8196 1.28469C21.8196 1.28469 24.473 3.97675 25.4471 5.01992C27.4623 7.17356 27.2944 8.75514 24.8761 11.0097L20.3418 15.0142L26.0516 13.0624C29.3096 11.8847 28.9738 11.077 28.5707 7.44276Z"></path>
<path fill="url(#paint27_radial_735_597)" d="M32.9036 12.1538L33.5082 9.8656C34.6502 5.55831 33.5754 4.21228 29.209 3.74117C29.209 3.74117 30.5525 7.27449 31.0227 8.62052C31.9967 11.4135 31.1907 12.7932 28.067 13.87L22.29 15.6872L28.3021 16.2592C31.7616 16.4948 31.7952 15.6199 32.9036 12.1538Z"></path>
<path fill="url(#paint28_radial_735_597)" d="M34.9524 18.1773L36.4303 16.3265C39.218 12.8269 38.7814 11.178 34.986 8.9907C34.986 8.9907 34.7845 12.7932 34.6501 14.2066C34.415 17.1678 33.1051 18.0764 29.8135 17.7735L23.8013 17.0669L29.0746 20.0281C32.1646 21.677 32.5341 20.903 34.9524 18.1773Z"></path>
<path fill="url(#paint29_radial_735_597)" d="M34.3814 24.5373L36.4638 23.4604C40.4272 21.4078 40.6959 19.7252 38.1432 16.1919C38.1432 16.1919 36.3967 19.557 35.7249 20.8021C34.3142 23.3932 32.7356 23.696 29.8471 22.0808L24.641 18.9849L28.2685 23.8306C30.3845 26.59 31.0562 26.0516 34.3814 24.5373Z"></path>
<path fill="#000000" d="M56.4051 28.7499C55.214 28.7499 54.1111 28.5286 53.0524 28.0861C51.9936 27.6435 51.1113 27.0239 50.3173 26.2274C49.5232 25.4308 48.9056 24.5015 48.4645 23.4394C48.0233 22.3773 47.8027 21.2709 47.8027 20.0317C47.8027 18.7926 48.0233 17.6863 48.4645 16.6242C48.9056 15.5621 49.5232 14.677 50.3173 13.8804C51.1113 13.0839 52.0378 12.4643 53.0965 12.0217C54.1553 11.5792 55.3023 11.3579 56.5375 11.3579C57.905 11.3579 59.1843 11.6235 60.3754 12.1545C61.5224 12.6856 62.493 13.3936 63.2429 14.3672L61.0372 16.5799C60.5078 15.8719 59.8461 15.3851 59.0961 14.9868C58.3021 14.6328 57.4639 14.4557 56.5375 14.4557C55.4787 14.4557 54.5082 14.677 53.7141 15.1638C52.8759 15.6506 52.2583 16.2701 51.7731 17.111C51.3319 17.9518 51.0672 18.9254 51.0672 20.0317C51.0672 21.1381 51.2878 22.156 51.7289 22.9968C52.1701 23.8377 52.7877 24.5015 53.5818 24.9883C54.3758 25.4751 55.2581 25.6963 56.2728 25.6963C57.3315 25.6963 58.2138 25.5193 58.9638 25.121C59.7137 24.7227 60.2872 24.1474 60.6843 23.3951C61.0813 22.6428 61.3019 21.7134 61.3019 20.6071L63.4194 22.0675L56.0963 21.9789V19.1467H64.6546V19.5892C64.6546 21.5806 64.3017 23.2623 63.5958 24.6342C62.89 25.9618 61.8753 26.9797 60.6401 27.6878C59.4931 28.3958 58.0374 28.7499 56.4051 28.7499Z"></path>
<path fill="#000000" d="M71.5395 28.7501C70.4872 28.7501 69.5664 28.4842 68.7333 27.9524C67.9002 27.4206 67.2425 26.7115 66.7601 25.7808C66.2778 24.8501 66.0586 23.8309 66.0586 22.7229C66.0586 21.5707 66.2778 20.5514 66.7601 19.6207C67.2425 18.69 67.9002 17.9809 68.7333 17.4491C69.5664 16.9173 70.5311 16.6514 71.5395 16.6514C72.3726 16.6514 73.1181 16.8286 73.7319 17.1389C74.3896 17.4934 74.9158 17.9366 75.2666 18.5571C75.6612 19.1775 75.8805 19.8423 75.8805 20.5957V24.7615C75.8366 25.5149 75.6174 26.224 75.2666 26.8002C74.872 27.3763 74.3458 27.8638 73.7319 28.2183C73.1181 28.5728 72.3726 28.7501 71.5395 28.7501ZM72.1096 25.8695C72.9865 25.8695 73.6881 25.5593 74.2142 24.9831C74.7404 24.407 75.0035 23.6536 75.0035 22.7229C75.0035 22.1025 74.872 21.5706 74.6527 21.0831C74.3896 20.5957 74.0827 20.2411 73.6442 19.9752C73.2057 19.7093 72.6796 19.5763 72.1096 19.5763C71.5395 19.5763 71.0572 19.7093 70.6187 19.9752C70.1803 20.2411 69.8295 20.5957 69.6102 21.0831C69.3472 21.5706 69.2595 22.1025 69.2595 22.7229C69.2595 23.3434 69.391 23.8752 69.6102 24.3627C69.8733 24.8502 70.1803 25.2047 70.6187 25.4706C71.0572 25.7365 71.5395 25.8695 72.1096 25.8695ZM74.872 28.5286V25.4263L75.3543 22.59L74.872 19.7979V16.9616H77.9413V28.5286H74.872Z"></path>
<path fill="#000000" d="M80.4277 28.5339V11.25H83.5605V28.5339H80.4277Z"></path>
<path fill="#000000" d="M87.6105 15.0916C87.0758 15.0916 86.6747 14.9148 86.3183 14.561C85.9618 14.2073 85.8281 13.8093 85.8281 13.2787C85.8281 12.7923 86.0064 12.3501 86.3183 11.9964C86.6747 11.6427 87.0758 11.4658 87.6105 11.4658C88.1452 11.4658 88.5908 11.6427 88.9027 11.9964C89.2146 12.3501 89.3929 12.7923 89.3929 13.2787C89.3929 13.8093 89.2146 14.2073 88.9027 14.561C88.5462 14.9148 88.1452 15.0916 87.6105 15.0916ZM86.0064 28.5337V16.993H89.1701V28.5337H86.0064Z"></path>
<path fill="#000000" d="M91.6602 28.5339V11.25H94.7928V28.5339H91.6602Z"></path>
<path fill="#000000" d="M102.828 28.7501C101.637 28.7501 100.535 28.4842 99.6085 27.9524C98.6824 27.4206 97.9327 26.7115 97.3594 25.8252C96.8302 24.8945 96.5215 23.8752 96.5215 22.7229C96.5215 21.5707 96.7861 20.5514 97.3153 19.6207C97.8445 18.7343 98.5942 17.9809 99.5203 17.4491C100.446 16.9173 101.461 16.6514 102.607 16.6514C103.71 16.6514 104.724 16.9173 105.562 17.4048C106.4 17.8923 107.061 18.6014 107.547 19.4877C108.032 20.3741 108.296 21.349 108.296 22.457C108.296 22.6786 108.296 22.8559 108.252 23.0774C108.208 23.299 108.164 23.5207 108.12 23.8309L98.4178 23.8752V21.5263L106.665 21.482L105.386 22.457C105.342 21.7479 105.209 21.2161 105.033 20.7286C104.812 20.2855 104.504 19.9309 104.107 19.665C103.71 19.3991 103.225 19.3104 102.607 19.3104C101.99 19.3104 101.461 19.4434 100.976 19.7093C100.535 19.9752 100.182 20.3741 99.9172 20.9059C99.6526 21.3934 99.5644 22.0138 99.5644 22.6786C99.5644 23.3877 99.6967 24.0082 99.9613 24.4956C100.226 25.0275 100.623 25.4263 101.108 25.6922C101.593 25.9581 102.166 26.0911 102.828 26.0911C103.401 26.0911 103.93 26.0024 104.415 25.7808C104.901 25.5592 105.297 25.2933 105.65 24.8945L107.502 26.7558C106.929 27.4206 106.268 27.9081 105.474 28.2627C104.636 28.5729 103.754 28.7501 102.828 28.7501Z"></path>
<path fill="#000000" d="M115.449 28.7501C114.301 28.7501 113.242 28.4842 112.315 27.9524C111.388 27.4206 110.638 26.6672 110.108 25.7808C109.579 24.8501 109.27 23.8308 109.27 22.6786C109.27 21.5263 109.534 20.507 110.064 19.6207C110.594 18.7343 111.344 17.9809 112.271 17.4491C113.198 16.9173 114.257 16.6514 115.405 16.6514C116.597 16.6514 117.656 16.9173 118.583 17.4491C119.51 17.9809 120.26 18.69 120.79 19.6207C121.32 20.507 121.584 21.5263 121.584 22.6786C121.584 23.8308 121.32 24.8501 120.79 25.7808C120.26 26.7115 119.51 27.4206 118.583 27.9524C117.656 28.4842 116.597 28.7501 115.449 28.7501ZM115.405 25.8252C115.979 25.8252 116.508 25.6922 116.95 25.4263C117.391 25.1604 117.744 24.8059 118.009 24.3184C118.274 23.8309 118.362 23.299 118.362 22.6786C118.362 22.0581 118.23 21.5263 117.965 21.0831C117.7 20.64 117.347 20.2411 116.906 19.9752C116.464 19.7093 115.935 19.5763 115.361 19.5763C114.787 19.5763 114.257 19.7093 113.816 19.9752C113.375 20.2411 113.021 20.5957 112.757 21.0831C112.492 21.5263 112.359 22.1024 112.359 22.6786C112.359 23.299 112.492 23.8309 112.757 24.3184C113.021 24.8059 113.375 25.1604 113.816 25.4263C114.346 25.6922 114.831 25.8252 115.405 25.8252Z"></path>
<defs>
<radialGradient gradientTransform="translate(7.76624 1.36763e-06) rotate(56.6947) scale(47.8608 63.3684)" gradientUnits="userSpaceOnUse" r="1" cy="0" cx="0" id="paint0_radial_735_597">
<stop stop-color="#FFAF27"></stop>
<stop stop-color="#DE00B2" offset="0.564104"></stop>
<stop stop-color="#2F21FA" offset="1"></stop>
</radialGradient>
<radialGradient gradientTransform="translate(7.76624 1.36763e-06) rotate(56.6947) scale(47.8608 63.3684)" gradientUnits="userSpaceOnUse" r="1" cy="0" cx="0" id="paint1_radial_735_597">
<stop stop-color="#FFAF27"></stop>
<stop stop-color="#DE00B2" offset="0.564104"></stop>
<stop stop-color="#2F21FA" offset="1"></stop>
</radialGradient>
<radialGradient gradientTransform="translate(7.76624 1.36763e-06) rotate(56.6947) scale(47.8608 63.3684)" gradientUnits="userSpaceOnUse" r="1" cy="0" cx="0" id="paint2_radial_735_597">
<stop stop-color="#FFAF27"></stop>
<stop stop-color="#DE00B2" offset="0.564104"></stop>
<stop stop-color="#2F21FA" offset="1"></stop>
</radialGradient>
<radialGradient gradientTransform="translate(7.76624 1.36763e-06) rotate(56.6947) scale(47.8608 63.3684)" gradientUnits="userSpaceOnUse" r="1" cy="0" cx="0" id="paint3_radial_735_597">
<stop stop-color="#FFAF27"></stop>
<stop stop-color="#DE00B2" offset="0.564104"></stop>
<stop stop-color="#2F21FA" offset="1"></stop>
</radialGradient>
<radialGradient gradientTransform="translate(7.76624 1.36763e-06) rotate(56.6947) scale(47.8608 63.3684)" gradientUnits="userSpaceOnUse" r="1" cy="0" cx="0" id="paint4_radial_735_597">
<stop stop-color="#FFAF27"></stop>
<stop stop-color="#DE00B2" offset="0.564104"></stop>
<stop stop-color="#2F21FA" offset="1"></stop>
</radialGradient>
<radialGradient gradientTransform="translate(7.76624 1.36763e-06) rotate(56.6947) scale(47.8608 63.3684)" gradientUnits="userSpaceOnUse" r="1" cy="0" cx="0" id="paint5_radial_735_597">
<stop stop-color="#FFAF27"></stop>
<stop stop-color="#DE00B2" offset="0.564104"></stop>
<stop stop-color="#2F21FA" offset="1"></stop>
</radialGradient>
<radialGradient gradientTransform="translate(7.76624 1.36763e-06) rotate(56.6947) scale(47.8608 63.3684)" gradientUnits="userSpaceOnUse" r="1" cy="0" cx="0" id="paint6_radial_735_597">
<stop stop-color="#FFAF27"></stop>
<stop stop-color="#DE00B2" offset="0.564104"></stop>
<stop stop-color="#2F21FA" offset="1"></stop>
</radialGradient>
<radialGradient gradientTransform="translate(7.76624 1.36763e-06) rotate(56.6947) scale(47.8608 63.3684)" gradientUnits="userSpaceOnUse" r="1" cy="0" cx="0" id="paint7_radial_735_597">
<stop stop-color="#FFAF27"></stop>
<stop stop-color="#DE00B2" offset="0.564104"></stop>
<stop stop-color="#2F21FA" offset="1"></stop>
</radialGradient>
<radialGradient gradientTransform="translate(7.76624 1.36763e-06) rotate(56.6947) scale(47.8608 63.3684)" gradientUnits="userSpaceOnUse" r="1" cy="0" cx="0" id="paint8_radial_735_597">
<stop stop-color="#FFAF27"></stop>
<stop stop-color="#DE00B2" offset="0.564104"></stop>
<stop stop-color="#2F21FA" offset="1"></stop>
</radialGradient>
<radialGradient gradientTransform="translate(7.76624 1.36763e-06) rotate(56.6947) scale(47.8608 63.3684)" gradientUnits="userSpaceOnUse" r="1" cy="0" cx="0" id="paint9_radial_735_597">
<stop stop-color="#FFAF27"></stop>
<stop stop-color="#DE00B2" offset="0.564104"></stop>
<stop stop-color="#2F21FA" offset="1"></stop>
</radialGradient>
<radialGradient gradientTransform="translate(7.76624 1.36763e-06) rotate(56.6947) scale(47.8608 63.3684)" gradientUnits="userSpaceOnUse" r="1" cy="0" cx="0" id="paint10_radial_735_597">
<stop stop-color="#FFAF27"></stop>
<stop stop-color="#DE00B2" offset="0.564104"></stop>
<stop stop-color="#2F21FA" offset="1"></stop>
</radialGradient>
<radialGradient gradientTransform="translate(7.76624 1.36763e-06) rotate(56.6947) scale(47.8608 63.3684)" gradientUnits="userSpaceOnUse" r="1" cy="0" cx="0" id="paint11_radial_735_597">
<stop stop-color="#FFAF27"></stop>
<stop stop-color="#DE00B2" offset="0.564104"></stop>
<stop stop-color="#2F21FA" offset="1"></stop>
</radialGradient>
<radialGradient gradientTransform="translate(7.76624 1.36763e-06) rotate(56.6947) scale(47.8608 63.3684)" gradientUnits="userSpaceOnUse" r="1" cy="0" cx="0" id="paint12_radial_735_597">
<stop stop-color="#FFAF27"></stop>
<stop stop-color="#DE00B2" offset="0.564104"></stop>
<stop stop-color="#2F21FA" offset="1"></stop>
</radialGradient>
<radialGradient gradientTransform="translate(7.76624 1.36763e-06) rotate(56.6947) scale(47.8608 63.3684)" gradientUnits="userSpaceOnUse" r="1" cy="0" cx="0" id="paint13_radial_735_597">
<stop stop-color="#FFAF27"></stop>
<stop stop-color="#DE00B2" offset="0.564104"></stop>
<stop stop-color="#2F21FA" offset="1"></stop>
</radialGradient>
<radialGradient gradientTransform="translate(7.76624 1.36763e-06) rotate(56.6947) scale(47.8608 63.3684)" gradientUnits="userSpaceOnUse" r="1" cy="0" cx="0" id="paint14_radial_735_597">
<stop stop-color="#FFAF27"></stop>
<stop stop-color="#DE00B2" offset="0.564104"></stop>
<stop stop-color="#2F21FA" offset="1"></stop>
</radialGradient>
<radialGradient gradientTransform="translate(7.76624 1.36763e-06) rotate(56.6947) scale(47.8608 63.3684)" gradientUnits="userSpaceOnUse" r="1" cy="0" cx="0" id="paint15_radial_735_597">
<stop stop-color="#FFAF27"></stop>
<stop stop-color="#DE00B2" offset="0.564104"></stop>
<stop stop-color="#2F21FA" offset="1"></stop>
</radialGradient>
<radialGradient gradientTransform="translate(7.76624 1.36763e-06) rotate(56.6947) scale(47.8608 63.3684)" gradientUnits="userSpaceOnUse" r="1" cy="0" cx="0" id="paint16_radial_735_597">
<stop stop-color="#FFAF27"></stop>
<stop stop-color="#DE00B2" offset="0.564104"></stop>
<stop stop-color="#2F21FA" offset="1"></stop>
</radialGradient>
<radialGradient gradientTransform="translate(7.76624 1.36763e-06) rotate(56.6947) scale(47.8608 63.3684)" gradientUnits="userSpaceOnUse" r="1" cy="0" cx="0" id="paint17_radial_735_597">
<stop stop-color="#FFAF27"></stop>
<stop stop-color="#DE00B2" offset="0.564104"></stop>
<stop stop-color="#2F21FA" offset="1"></stop>
</radialGradient>
<radialGradient gradientTransform="translate(7.76624 1.36763e-06) rotate(56.6947) scale(47.8608 63.3684)" gradientUnits="userSpaceOnUse" r="1" cy="0" cx="0" id="paint18_radial_735_597">
<stop stop-color="#FFAF27"></stop>
<stop stop-color="#DE00B2" offset="0.564104"></stop>
<stop stop-color="#2F21FA" offset="1"></stop>
</radialGradient>
<radialGradient gradientTransform="translate(7.76624 1.36763e-06) rotate(56.6947) scale(47.8608 63.3684)" gradientUnits="userSpaceOnUse" r="1" cy="0" cx="0" id="paint19_radial_735_597">
<stop stop-color="#FFAF27"></stop>
<stop stop-color="#DE00B2" offset="0.564104"></stop>
<stop stop-color="#2F21FA" offset="1"></stop>
</radialGradient>
<radialGradient gradientTransform="translate(7.76624 1.36763e-06) rotate(56.6947) scale(47.8608 63.3684)" gradientUnits="userSpaceOnUse" r="1" cy="0" cx="0" id="paint20_radial_735_597">
<stop stop-color="#FFAF27"></stop>
<stop stop-color="#DE00B2" offset="0.564104"></stop>
<stop stop-color="#2F21FA" offset="1"></stop>
</radialGradient>
<radialGradient gradientTransform="translate(7.76624 1.36763e-06) rotate(56.6947) scale(47.8608 63.3684)" gradientUnits="userSpaceOnUse" r="1" cy="0" cx="0" id="paint21_radial_735_597">
<stop stop-color="#FFAF27"></stop>
<stop stop-color="#DE00B2" offset="0.564104"></stop>
<stop stop-color="#2F21FA" offset="1"></stop>
</radialGradient>
<radialGradient gradientTransform="translate(7.76624 1.36763e-06) rotate(56.6947) scale(47.8608 63.3684)" gradientUnits="userSpaceOnUse" r="1" cy="0" cx="0" id="paint22_radial_735_597">
<stop stop-color="#FFAF27"></stop>
<stop stop-color="#DE00B2" offset="0.564104"></stop>
<stop stop-color="#2F21FA" offset="1"></stop>
</radialGradient>
<radialGradient gradientTransform="translate(7.76624 1.36763e-06) rotate(56.6947) scale(47.8608 63.3684)" gradientUnits="userSpaceOnUse" r="1" cy="0" cx="0" id="paint23_radial_735_597">
<stop stop-color="#FFAF27"></stop>
<stop stop-color="#DE00B2" offset="0.564104"></stop>
<stop stop-color="#2F21FA" offset="1"></stop>
</radialGradient>
<radialGradient gradientTransform="translate(7.76624 1.36763e-06) rotate(56.6947) scale(47.8608 63.3684)" gradientUnits="userSpaceOnUse" r="1" cy="0" cx="0" id="paint24_radial_735_597">
<stop stop-color="#FFAF27"></stop>
<stop stop-color="#DE00B2" offset="0.564104"></stop>
<stop stop-color="#2F21FA" offset="1"></stop>
</radialGradient>
<radialGradient gradientTransform="translate(7.76624 1.36763e-06) rotate(56.6947) scale(47.8608 63.3684)" gradientUnits="userSpaceOnUse" r="1" cy="0" cx="0" id="paint25_radial_735_597">
<stop stop-color="#FFAF27"></stop>
<stop stop-color="#DE00B2" offset="0.564104"></stop>
<stop stop-color="#2F21FA" offset="1"></stop>
</radialGradient>
<radialGradient gradientTransform="translate(7.76624 1.36763e-06) rotate(56.6947) scale(47.8608 63.3684)" gradientUnits="userSpaceOnUse" r="1" cy="0" cx="0" id="paint26_radial_735_597">
<stop stop-color="#FFAF27"></stop>
<stop stop-color="#DE00B2" offset="0.564104"></stop>
<stop stop-color="#2F21FA" offset="1"></stop>
</radialGradient>
<radialGradient gradientTransform="translate(7.76624 1.36763e-06) rotate(56.6947) scale(47.8608 63.3684)" gradientUnits="userSpaceOnUse" r="1" cy="0" cx="0" id="paint27_radial_735_597">
<stop stop-color="#FFAF27"></stop>
<stop stop-color="#DE00B2" offset="0.564104"></stop>
<stop stop-color="#2F21FA" offset="1"></stop>
</radialGradient>
<radialGradient gradientTransform="translate(7.76624 1.36763e-06) rotate(56.6947) scale(47.8608 63.3684)" gradientUnits="userSpaceOnUse" r="1" cy="0" cx="0" id="paint28_radial_735_597">
<stop stop-color="#FFAF27"></stop>
<stop stop-color="#DE00B2" offset="0.564104"></stop>
<stop stop-color="#2F21FA" offset="1"></stop>
</radialGradient>
<radialGradient gradientTransform="translate(7.76624 1.36763e-06) rotate(56.6947) scale(47.8608 63.3684)" gradientUnits="userSpaceOnUse" r="1" cy="0" cx="0" id="paint29_radial_735_597">
<stop stop-color="#FFAF27"></stop>
<stop stop-color="#DE00B2" offset="0.564104"></stop>
<stop stop-color="#2F21FA" offset="1"></stop>
</radialGradient>
</defs>
</svg>
